<?xml version="1.0" encoding="utf-8"?>
<!-- Generator: Adobe Illustrator 16.0.0, SVG Export Plug-In . SVG Version: 6.00 Build 0)  -->
<!DOCTYPE svg PUBLIC "-//W3C//DTD SVG 1.1//EN" "http://www.w3.org/Graphics/SVG/1.1/DTD/svg11.dtd">
<svg version="1.1" id="Layer_1" xmlns="http://www.w3.org/2000/svg" xmlns:xlink="http://www.w3.org/1999/xlink" x="0px" y="0px"
	 width="66px" height="105px" viewBox="0 0 66 105" enable-background="new 0 0 66 105" xml:space="preserve">
<g>
	<path fill="#FFFFFF" d="M49.878,79.693c6.932,3.805,15.905,6.986,15.905,6.986s-5.548-13.816-12.771-29.741
		c2.534-14.392-3.397-20.418-8.675-25.728c-6.399-6.453-7.362-12.365-7.362-12.365s-2.518,2.449-3.646,4.96
		C25.16,19.379,19.699,11.19,19.47-0.013C19.334,0.065,6.958,5.606,6.364,21.181c-0.067,1.754,0.072,3.462,0.392,5.097l-1.279,1.73
		c-2.479,3.353-2.849,7.719-2.186,11.326l-0.335,1.713c-0.22,1.119-0.143,3.126,1.115,4.825c-3.878,6.252-4.872,13.914-2.783,21.746
		c1.981,7.438,7.404,14.995,12.579,18.847c5.547,4.131,10.086,6.116,16.79,8.27c5.979,1.924,15.776,2.669,16.346,10.276
		c1.356-0.058,2.488-0.769,2.488-0.769c2.72-1.612,3.707-4.672,4.039-7.074c0.707,0.574,1.127,2.137,1.127,2.137
		c1.731-3.862,0.072-8.227,0.072-8.227l0.982,0.554C54.638,85.886,52.338,82.263,49.878,79.693z"/>
	<path fill="#D8D8D8" d="M44.06,56.511c0,0-2.952,0.199-2.854-2.509c0.118-2.708,1.264-9.279-6.401-15.218
		c0.128,1.727-0.579,3.16-0.579,3.16s-2.376-8.035-15.795-6.653c-1.286,0.271-1.782,0.768-1.782,0.768s5.917-0.487,8.191,1.803
		c-2.366,0.004-4.288,0.86-4.288,0.86s8.452-1.007,8.606,5.238c0.706-0.647,0.995-2.243,0.995-2.243s0.83,1.633,0.683,3.678
		c0.536-0.186,1.214-1.477,1.184-1.932c1.049,1.32,0.438,3.682,0.438,3.682s0.99,0.723,1.448,1.267
		c0.453-0.843,1.342-1.424,2.369-1.424c0.455,0,0.886,0.125,1.265,0.322c-0.75-0.918-1.967-1.595-3.647-2.098
		c4.03-0.716,7.83,3.028,4.234,6.457c0.002-0.008,0.003-0.024,0.005-0.032c-0.197,0.19-0.421,0.348-0.669,0.472
		c0.263,0.297,2.083,2.509,1.75,5.772c-0.653-2.431-3.954-5.694-3.954-5.694l0.014-0.004c-0.753-0.301-1.354-0.957-1.571-1.757
		c-0.764-0.704-1.682-1.51-2.479-2.123c-14.012-6.433-22.068,1.31-22.334,1.956c0.285-0.311,1.802-0.683,2.184-0.566
		c-0.171,0.084-2.526,1.717-3.368,3.689c0.322-0.348,1.181-0.657,1.546-0.62c-1.76,2.447-2.461,7.743-2.461,7.743
		s-0.79,1.194-0.874,2.374c0.246-0.429,0.754-0.948,1.062-1.065c-0.389,11.156,7.829,22.513,8.106,23.003
		c0.071,0.101,4.448,3.961,8.709,5.671c-1.949-1.633-3.649-3.313-5.147-5.036C6.495,71.492,8.695,55.276,17.577,51.217
		c7.677-3.619,18.219,2.859,19.888,7.451c0.012,0.041,0.025,0.095,0.037,0.135c1.946,2.267,3.894,1.42,4.497-0.366
		c0.332-1.008,1.242-1.615,2.082-1.934C44.065,56.507,44.06,56.511,44.06,56.511z"/>
	<path fill="#545454" d="M55.052,70.363l-5.738-11.174c0,0-0.961-1.861-5.439-1.248l10.768,15.168l-6.829-13.47L55.052,70.363z
		 M44.052,61.46c-0.174-0.423-1.495-0.83-1.918-0.126c-0.511,0.822,1.281,2.359,3.006,2.858
		C42.917,62.738,42.364,61.229,44.052,61.46z M20.173,44.023c-1.083-0.09-1.807-1.122-1.807-1.122s0.048,1.319,0.311,2.054
		c-3.748-0.397-5.736-3.113-5.736-3.113s0.217,1.577,0.687,2.558c-8.094,0.779-16.39,20,1.454,40.417
		c-0.277-0.49-8.495-11.847-8.106-23.003c-0.308,0.117-0.816,0.637-1.062,1.065c0.084-1.18,0.874-2.374,0.874-2.374
		s0.702-5.296,2.461-7.743c-0.365-0.037-1.224,0.272-1.546,0.62c0.842-1.972,3.197-3.605,3.368-3.689
		c-0.382-0.117-1.899,0.255-2.184,0.566c0.266-0.646,8.322-8.389,22.334-1.956c0.02,0.004,0.028,0.008,0.047,0.012
		c-5.11-4.899-11.156-5.792-11.156-5.792S19.976,43.222,20.173,44.023z"/>
	<path fill="#E21037" d="M36.14,28.723c-0.366,0.668-0.34,1.533-0.34,1.533S19.057,24.124,16.202,9.919
		c-1.692,3.585-0.155,7.875-0.155,7.875s-2.419-2.845-2.607-4.786c-7.296,14.991,4.555,22.115,4.99,22.283
		c13.419-1.382,15.795,6.653,15.795,6.653s0.707-1.434,0.579-3.16c7.665,5.938,6.52,12.509,6.401,15.218
		c-0.098,2.708,2.854,2.509,2.854,2.509s0.006-0.004,0.021-0.008c0.31-0.068,2.782-0.62,4.203,0.079
		C51.546,38.467,40.387,36.609,36.14,28.723z"/>
	<path fill="#060608" d="M51.03,88.845c0.255-0.079,1.274,0.062,1.867,0.475c-2.034-9.828-19.485-21.331-19.485-21.331
		s1.195,0.435,2.224-0.094c12.722,9.59,26.61,15.458,26.61,15.458s-3.903-9.729-11.365-26.155
		c4.081-21.398-11.351-22.959-14.751-34.14c-0.433,0.511-1.583,2.574-1.71,3.66c-1.838-0.966-15.146-6.298-16.709-23.011
		C6.784,11.69,5.255,27.938,14.251,35.543c-3.778,0.216-6.758-4.215-7.129-6.32c-3.867,5.229-1.569,12.94,0.331,14.718
		c-1.735-0.694-2.493-2.495-2.493-2.495s-0.516,2.602,1.748,4.159c-9.43,13.107-2.546,31.134,8.375,39.213
		C-2.762,64.401,5.534,45.18,13.628,44.401c-0.47-0.981-0.687-2.558-0.687-2.558s1.989,2.715,5.736,3.113
		c-0.262-0.735-0.311-2.054-0.311-2.054s0.723,1.032,1.807,1.122c-0.197-0.801-0.062-1.499-0.062-1.499s6.046,0.892,11.156,5.792
		c-0.019-0.004-0.028-0.008-0.047-0.012c0.797,0.613,1.715,1.419,2.479,2.123c-0.067-0.234-0.121-0.483-0.121-0.742
		c0-0.458,0.127-0.891,0.326-1.272c-0.458-0.544-1.448-1.267-1.448-1.267s0.611-2.362-0.438-3.682
		c0.03,0.455-0.648,1.746-1.184,1.932c0.147-2.045-0.683-3.678-0.683-3.678s-0.289,1.596-0.995,2.243
		c-0.155-6.245-8.606-5.238-8.606-5.238s1.921-0.856,4.288-0.86c-2.274-2.29-8.191-1.803-8.191-1.803s0.496-0.497,1.782-0.768
		c-0.435-0.168-12.286-7.292-4.99-22.283c0.188,1.941,2.607,4.786,2.607,4.786s-1.537-4.29,0.155-7.875
		C19.057,24.124,35.8,30.256,35.8,30.256s-0.026-0.865,0.34-1.533c4.247,7.886,15.406,9.744,12.145,27.859
		c-1.421-0.699-3.894-0.147-4.203-0.079c-0.84,0.318-1.75,0.926-2.082,1.934c-0.604,1.786-2.551,2.633-4.497,0.366
		c-0.012-0.04-0.025-0.094-0.037-0.135l0.014,0.135c0,0-2.695,4.467,1.545,7.264c-1.336,0.062-2.17-0.704-2.17-0.704
		s0.429,1.795,1.444,2.677c-1.715-1.372-3.187-2.624-3.187-2.624s-3.938,0.395-6.678-1.747c-0.173,5.1,6.04,6.064,11.227,11.921
		c-27.975-7.359-22.219-21.418-22.139-21.649c-9.051,6.52-0.828,21.155,0.756,23.13c12.591,16.257,29.191,13.701,30.305,25.317
		c3.5-2.238,3.028-8.384,3.028-8.384s1.287,0.62,1.91,1.663C53.762,91.596,51.266,89.044,51.03,88.845z M49.313,59.189l5.738,11.174
		L47.812,59.64l6.829,13.47L43.874,57.941C48.353,57.328,49.313,59.189,49.313,59.189z M42.134,61.334
		c0.423-0.704,1.744-0.297,1.918,0.126c-1.688-0.23-1.135,1.278,1.088,2.732C43.415,63.693,41.623,62.156,42.134,61.334z
		 M33.891,45.213c1.681,0.502,2.897,1.179,3.647,2.098c0.205,0.26,0.383,0.543,0.515,0.84c0.002,0.005,0.004,0.02,0.006,0.024
		c0.007,0.026,0.014,0.042,0.04,0.069c0.138,0.359-0.029,0.776-0.379,0.958c-0.382,0.188-0.838,0.032-1.022-0.347
		c-0.112-0.217-0.1-0.449,0.008-0.648c-0.452,0.253-0.766,0.731-0.766,1.282c0,0.808,0.653,1.471,1.473,1.471
		c0.341,0,0.66-0.128,0.915-0.34c-0.028,0.332-0.093,0.664-0.197,1.018c-0.002,0.008-0.003,0.024-0.005,0.032
		C41.721,48.241,37.921,44.497,33.891,45.213z M36.273,52.38c-0.344,0-0.696-0.07-1.003-0.196l-0.014,0.004
		c0,0,3.301,3.263,3.954,5.694c0.333-3.264-1.487-5.476-1.75-5.772C37.096,52.278,36.705,52.38,36.273,52.38z"/>
</g>
</svg>
